<?xml version="1.0" encoding="UTF-8"?>
<svg xmlns="http://www.w3.org/2000/svg" xmlns:xlink="http://www.w3.org/1999/xlink" width="184.21pt" height="173.68pt" viewBox="0 0 184.21 173.68" version="1.1">
<defs>
<clipPath id="clip1">
  <path d="M 0 0 L 184 0 L 184 173.679688 L 0 173.679688 Z M 0 0 "/>
</clipPath>
</defs>
<g id="surface1">
<g clip-path="url(#clip1)" clip-rule="nonzero">
<path style=" stroke:none;fill-rule:nonzero;fill:rgb(100%,100%,100%);fill-opacity:1;" d="M 0 173.679688 L 184.210938 173.679688 L 184.210938 -0.00390625 L 0 -0.00390625 Z M 0 173.679688 "/>
</g>
<path style=" stroke:none;fill-rule:nonzero;fill:rgb(5.899048%,48.199463%,69.799805%);fill-opacity:1;" d="M 29.96875 148.328125 L 143.8125 148.328125 L 143.8125 34.449219 L 29.96875 34.449219 Z M 29.96875 148.328125 "/>
<path style=" stroke:none;fill-rule:nonzero;fill:rgb(100%,100%,100%);fill-opacity:1;" d="M 87.128906 41.589844 C 114.644531 41.589844 136.953125 63.894531 136.953125 91.410156 C 136.953125 118.929688 114.644531 141.234375 87.128906 141.234375 C 59.609375 141.234375 37.300781 118.929688 37.300781 91.410156 C 37.300781 63.894531 59.609375 41.589844 87.128906 41.589844 "/>
<path style=" stroke:none;fill-rule:nonzero;fill:rgb(5.899048%,48.199463%,69.799805%);fill-opacity:1;" d="M 87.246094 136.632813 C 62.199219 136.632813 41.886719 116.390625 41.886719 91.417969 C 41.886719 66.449219 62.199219 46.207031 87.246094 46.207031 C 112.300781 46.207031 132.609375 66.449219 132.609375 91.417969 C 132.609375 116.390625 112.300781 136.632813 87.246094 136.632813 Z M 75.609375 52.65625 C 75.609375 52.65625 65.53125 55.027344 60.492188 61.253906 C 63.160156 63.328125 66.417969 65.105469 67.902344 65.996094 C 69.683594 61.847656 74.722656 54.136719 75.609375 52.65625 Z M 72.199219 67.480469 C 75.761719 69.257813 80.507813 70.441406 84.800781 70.738281 L 84.800781 51.175781 L 81.242188 51.46875 C 78.574219 54.730469 73.386719 64.515625 72.199219 67.480469 Z M 47 89.195313 L 62.714844 89.195313 C 63.308594 81.191406 65.382813 74.296875 67.164063 69.851563 C 64.492188 68.960938 57.082031 64.515625 57.082031 64.515625 C 48.484375 72.519531 47 84.675781 47 89.195313 Z M 66.566406 89.046875 L 84.949219 89.046875 L 84.949219 74.003906 C 78.726563 73.703125 73.386719 71.925781 70.71875 71.035156 C 68.347656 76.667969 66.867188 85.195313 66.566406 89.046875 Z M 57.082031 118.765625 C 59.746094 116.691406 64.492188 114.320313 67.164063 113.429688 C 64.492188 108.09375 62.414063 96.53125 62.414063 93.269531 L 46.703125 93.269531 C 45.816406 105.128906 54.710938 116.691406 57.082031 118.765625 Z M 71.019531 111.949219 C 73.6875 110.464844 81.984375 108.6875 84.949219 108.390625 L 84.949219 93.269531 L 66.566406 93.269531 C 66.273438 98.3125 69.832031 108.6875 71.019531 111.949219 Z M 76.054688 130.332031 C 74.277344 128.847656 69.234375 119.359375 68.054688 116.394531 C 66.566406 116.992188 61.527344 119.953125 60.34375 121.136719 C 66.273438 125.882813 72.199219 128.847656 76.054688 130.332031 Z M 81.984375 130.921875 C 81.984375 130.921875 84.355469 130.921875 84.949219 130.921875 L 84.949219 111.949219 C 80.507813 112.246094 75.464844 114.023438 72.496094 115.210938 C 73.6875 119.65625 80.507813 129.4375 81.984375 130.921875 Z M 106.519531 66.144531 C 108.003906 65.253906 111.261719 63.476563 113.933594 61.398438 C 108.894531 55.175781 98.808594 52.804688 98.808594 52.804688 C 99.703125 54.285156 104.742188 61.992188 106.519531 66.144531 Z M 93.175781 51.617188 L 89.621094 51.320313 L 89.621094 70.886719 C 93.917969 70.589844 98.664063 69.40625 102.222656 67.628906 C 101.035156 64.660156 95.847656 54.882813 93.175781 51.617188 Z M 117.34375 64.660156 C 117.34375 64.660156 109.925781 69.105469 107.257813 69.996094 C 109.039063 74.445313 111.113281 81.339844 111.707031 89.34375 L 127.417969 89.34375 C 127.417969 84.820313 125.9375 72.671875 117.34375 64.660156 Z M 103.703125 71.1875 C 101.035156 72.070313 95.699219 73.628906 89.472656 73.925781 L 89.472656 89.195313 L 107.855469 89.195313 C 107.558594 85.34375 106.074219 76.816406 103.703125 71.1875 Z M 127.714844 93.417969 L 112.003906 93.417969 C 112.003906 96.683594 109.925781 108.246094 107.257813 113.578125 C 109.925781 114.46875 114.230469 116.84375 116.894531 118.914063 C 119.269531 116.839844 128.605469 105.277344 127.714844 93.417969 Z M 107.855469 93.417969 L 89.472656 93.417969 L 89.472656 108.316406 C 92.433594 108.613281 100.070313 110.464844 103.40625 112.097656 C 104.589844 108.835938 108.148438 98.460938 107.855469 93.417969 Z M 114.078125 121.289063 C 112.894531 120.101563 107.855469 117.136719 106.371094 116.542969 C 105.1875 119.507813 100.144531 128.996094 98.367188 130.476563 C 102.222656 128.996094 108.148438 126.035156 114.078125 121.289063 Z M 101.921875 115.359375 C 98.957031 114.175781 93.917969 112.394531 89.472656 112.097656 L 89.472656 131.074219 C 90.066406 131.074219 92.433594 131.074219 92.433594 131.074219 C 93.917969 129.589844 100.738281 119.804688 101.921875 115.359375 "/>
</g>
</svg>
